<?xml version="1.0" encoding="UTF-8"?>
<svg version="1.1" xmlns="http://www.w3.org/2000/svg" width="500" height="500">
<path d="M0 0 C165 0 330 0 500 0 C500 165 500 330 500 500 C335 500 170 500 0 500 C0 335 0 170 0 0 Z " fill="#5CE0E5" transform="translate(0,0)"/>
<path d="M0 0 C73.01754386 0 73.01754386 0 82.4375 7.5625 C92.53795597 18.8598915 93.37353629 33.00299748 93.37060547 47.40063477 C93.37497197 49.79711386 93.41136016 52.19173667 93.44921875 54.58789062 C93.53402934 66.06653185 92.70974906 76.90366281 84.46484375 85.6953125 C83 87 83 87 80 89 C80.9075 89.66 81.815 90.32 82.75 91 C87.36934114 94.8330703 89.86766115 100.15875147 91 106 C91.08924682 108.63915111 91.12629305 111.25098026 91.11352539 113.88964844 C91.11367142 114.68027176 91.11381744 115.47089508 91.1139679 116.28547668 C91.11327236 118.89347089 91.10549675 121.5013933 91.09765625 124.109375 C91.0957908 125.91969768 91.09436749 127.73002087 91.09336853 129.54034424 C91.08955339 134.30130409 91.07973165 139.06223337 91.06866455 143.82318115 C91.05662873 149.53757597 91.05204341 155.25198102 91.04621124 160.96638489 C91.03651938 169.64427785 91.01735579 178.32210373 91 187 C77.8 187 64.6 187 51 187 C50.95101562 181.24820313 50.90203125 175.49640625 50.8515625 169.5703125 C50.81619073 165.93357579 50.78023912 162.29686349 50.7421875 158.66015625 C50.68180243 152.88366123 50.62360359 147.10720052 50.578125 141.33056641 C50.54133868 136.67503478 50.49499725 132.01968864 50.44193649 127.36431503 C50.42335704 125.58528766 50.40826231 123.80622047 50.39665604 122.02713394 C50.37985402 119.54149495 50.35083452 117.0562841 50.31884766 114.57080078 C50.31668747 113.82993225 50.31452728 113.08906372 50.31230164 112.32574463 C50.36738571 108.20994852 50.36738571 108.20994852 48 105 C45.69 104.67 43.38 104.34 41 104 C41 131.39 41 158.78 41 187 C27.47 187 13.94 187 0 187 C0 125.29 0 63.58 0 0 Z " fill="#000000" transform="translate(316,132)"/>
<path d="M0 0 C8.34871596 7.10819353 12.38743885 14.2854226 14.19140625 24.98828125 C14.43269434 28.27619943 14.42671999 31.54063546 14.38671875 34.8359375 C14.38388885 35.73324081 14.38105896 36.63054413 14.37814331 37.55503845 C14.36705604 40.38709539 14.34197372 43.21882186 14.31640625 46.05078125 C14.30636162 47.98502144 14.29723838 49.91926664 14.2890625 51.85351562 C14.26886612 56.56533018 14.2296966 61.27644109 14.19140625 65.98828125 C2.31140625 65.98828125 -9.56859375 65.98828125 -21.80859375 65.98828125 C-22.18359375 48.73828125 -22.18359375 48.73828125 -22.28662109 43.31152344 C-22.32183944 41.88604894 -22.35776207 40.46059159 -22.39453125 39.03515625 C-22.41157104 37.93228271 -22.41157104 37.93228271 -22.42895508 36.80712891 C-22.53370411 33.09926541 -22.62941519 30.08037201 -24.80859375 26.98828125 C-27.0375037 25.87382627 -28.33914481 25.82347839 -30.80859375 25.80078125 C-31.50984375 25.78660156 -32.21109375 25.77242187 -32.93359375 25.7578125 C-35.05384313 25.82315802 -35.05384313 25.82315802 -36.80859375 27.98828125 C-37.7554618 30.8277087 -37.93743746 33.44254466 -37.94903564 36.42185974 C-37.95474579 37.30361877 -37.96045593 38.18537781 -37.96633911 39.09385681 C-37.96745697 40.05344803 -37.96857483 41.01303925 -37.96972656 42.00170898 C-37.97469147 43.01838654 -37.97965637 44.03506409 -37.98477173 45.08255005 C-37.99937682 48.44566524 -38.0061918 51.8087333 -38.01171875 55.171875 C-38.01747053 57.50830588 -38.02322826 59.84473675 -38.0289917 62.1811676 C-38.03949626 67.07952087 -38.04534284 71.97785775 -38.04882812 76.8762207 C-38.05431884 83.15556617 -38.07836166 89.43469546 -38.10680008 95.71397305 C-38.12541192 100.53950131 -38.13063124 105.36497728 -38.132164 110.19053841 C-38.13519315 112.50581103 -38.14323045 114.82108268 -38.15634918 117.13632011 C-38.17338271 120.37286801 -38.17153609 123.60888459 -38.16503906 126.84545898 C-38.17425385 127.80302597 -38.18346863 128.76059296 -38.19296265 129.74717712 C-38.15901948 135.13855577 -37.81973806 138.97713694 -33.80859375 142.98828125 C-30.22858763 143.38605971 -28.45113631 143.45716366 -25.49609375 141.30078125 C-22.09437694 136.63916933 -22.61105595 130.98551057 -22.4921875 125.40625 C-22.47353638 124.68393188 -22.45488525 123.96161377 -22.43566895 123.21740723 C-22.36772638 120.53698144 -22.30735188 117.85636813 -22.24609375 115.17578125 C-22.10171875 109.17390625 -21.95734375 103.17203125 -21.80859375 96.98828125 C-9.59859375 96.98828125 2.61140625 96.98828125 15.19140625 96.98828125 C15.23763627 102.60779666 15.27736467 108.22663646 15.30126953 113.84619141 C15.31124835 115.75278983 15.32483621 117.65937327 15.34228516 119.56591797 C15.49266152 136.43460762 15.56440946 152.51920559 4.33984375 166.25390625 C-5.57867539 175.64180503 -17.34089419 177.20178018 -30.37109375 177.36328125 C-32.04655273 177.41935547 -32.04655273 177.41935547 -33.75585938 177.4765625 C-45.77897575 177.60202111 -54.9969331 173.79876365 -63.6171875 165.44140625 C-73.28779278 154.61584455 -75.95146196 141.74490618 -75.96972656 127.61254883 C-75.97469147 126.68634232 -75.97965637 125.7601358 -75.98477173 124.80586243 C-75.99934571 121.74817143 -76.00619116 118.6905325 -76.01171875 115.6328125 C-76.01454613 114.58083868 -76.0173735 113.52886486 -76.02028656 112.44501305 C-76.03526815 106.86641566 -76.04450123 101.28784402 -76.04882812 95.70922852 C-76.05427872 89.99629456 -76.07823703 84.28360305 -76.10680008 78.57074451 C-76.12560565 74.13754131 -76.13064172 69.70439409 -76.132164 65.2711544 C-76.13515617 63.16841001 -76.14306552 61.06566576 -76.15634918 58.9629612 C-76.21639934 48.71730549 -76.04589088 38.66994687 -74.48730469 28.52612305 C-74.37244343 27.77296468 -74.25758217 27.01980631 -74.13924026 26.24382496 C-72.22215784 15.1909995 -66.91201736 4.78704065 -57.80859375 -2.01171875 C-40.84926631 -12.84452396 -16.32544009 -11.69346543 0 0 Z " fill="#020100" transform="translate(290.80859375,141.01171875)"/>
<path d="M0 0 C24.09 0 48.18 0 73 0 C73 11.55 73 23.1 73 35 C61.12 35 49.24 35 37 35 C37 46.88 37 58.76 37 71 C48.55 71 60.1 71 72 71 C72 82.55 72 94.1 72 106 C60.78 106 49.56 106 38 106 C38 119.53 38 133.06 38 147 C50.54 147 63.08 147 76 147 C76 158.88 76 170.76 76 183 C50.92 183 25.84 183 0 183 C0 122.61 0 62.22 0 0 Z " fill="#020100" transform="translate(129,134)"/>
<path d="M0 0 C11.88 0 23.76 0 36 0 C36 60.39 36 120.78 36 183 C24.12 183 12.24 183 0 183 C0 122.61 0 62.22 0 0 Z " fill="#040200" transform="translate(79,134)"/>
<path d="M0 0 C8.57393809 7.91440439 12.54676407 17.75725551 13.03277588 29.25372314 C13.17966186 35.56577031 13.1188374 41.87447022 13.0625 48.1875 C13.02125 54.725625 12.98 61.26375 12.9375 68 C-0.2625 68 -13.4625 68 -27.0625 68 C-27.4375 49.6875 -27.4375 49.6875 -27.54052734 43.91674805 C-27.57573422 42.40672029 -27.61165558 40.89670896 -27.6484375 39.38671875 C-27.65979736 38.60317017 -27.67115723 37.81962158 -27.68286133 37.0123291 C-27.78530967 33.17792224 -27.88732098 31.26276853 -30.0625 28 C-33.5625 27.5 -33.5625 27.5 -37.0625 28 C-39.14532672 31.12424008 -39.31300976 31.81030262 -39.31646729 35.35801697 C-39.32492676 36.69338249 -39.32492676 36.69338249 -39.33355713 38.0557251 C-39.32950867 39.02983337 -39.32546021 40.00394165 -39.32128906 41.00756836 C-39.3247937 42.03545975 -39.32829834 43.06335114 -39.33190918 44.12239075 C-39.34072869 47.52827664 -39.33487605 50.93395565 -39.328125 54.33984375 C-39.32947169 56.70252014 -39.33141225 59.06519626 -39.33392334 61.4278717 C-39.33687499 66.38350051 -39.33257598 71.33905729 -39.32324219 76.29467773 C-39.31185393 82.65146342 -39.31840299 89.00808011 -39.33038712 95.36485958 C-39.33760988 100.24525732 -39.33531574 105.12561493 -39.33013153 110.00601387 C-39.32879587 112.35001203 -39.33043983 114.69401381 -39.33509064 117.03800774 C-39.34016193 120.31311587 -39.33243661 123.58794945 -39.32128906 126.86303711 C-39.32533752 127.83512115 -39.32938599 128.8072052 -39.33355713 129.80874634 C-39.32791748 130.70180984 -39.32227783 131.59487335 -39.31646729 132.51499939 C-39.31533621 133.67614462 -39.31533621 133.67614462 -39.31418228 134.86074734 C-39.03061099 137.27105066 -38.26077104 138.90611214 -37.0625 141 C-33.62456661 140.81870185 -33.62456661 140.81870185 -30.0625 140 C-28.22617152 137.2861221 -27.80353152 135.01570205 -27.74365234 131.78222656 C-27.72359131 130.95029785 -27.70353027 130.11836914 -27.68286133 129.26123047 C-27.67150146 128.39643066 -27.6601416 127.53163086 -27.6484375 126.640625 C-27.63079346 125.83866699 -27.61314941 125.03670898 -27.5949707 124.21044922 C-27.53205599 121.22383421 -27.48576415 118.23688768 -27.4375 115.25 C-27.31375 108.5675 -27.19 101.885 -27.0625 95 C-13.5325 95 -0.0025 95 13.9375 95 C14.03020179 100.97411537 14.10956968 106.94565554 14.15722656 112.91992188 C14.17712815 114.94474828 14.20425946 116.96951889 14.23925781 118.99414062 C14.52990044 136.26173202 14.18572025 154.28151994 1.875 167.6875 C-2.87351505 172.22479609 -7.89942228 174.8385826 -14.0625 177 C-15.56490234 177.54720703 -15.56490234 177.54720703 -17.09765625 178.10546875 C-22.56630066 179.61388086 -28.24612744 179.36861444 -33.875 179.375 C-34.99970703 179.39949219 -36.12441406 179.42398438 -37.28320312 179.44921875 C-49.3395697 179.49125141 -59.10704216 175.36767267 -68.00390625 167.22265625 C-81.75220912 152.70231045 -81.52247673 133.1379087 -81.4609375 114.453125 C-81.4629634 112.2704051 -81.46587911 110.08768587 -81.46963501 107.90496826 C-81.4740378 103.3460847 -81.46769599 98.78737843 -81.45361328 94.22851562 C-81.43656375 88.43147193 -81.44634911 82.63484637 -81.46433067 76.83781815 C-81.47525896 72.33348539 -81.47168036 67.82924895 -81.4639473 63.32491302 C-81.46196806 61.18982644 -81.46432297 59.05473066 -81.47138596 56.91965485 C-81.55535339 24.39868408 -81.55535339 24.39868408 -74.3125 11.375 C-73.95961914 10.71387207 -73.60673828 10.05274414 -73.24316406 9.37158203 C-67.49057155 -1.03011826 -59.91509006 -5.73111074 -48.8515625 -9.81640625 C-32.51524409 -14.29168122 -13.23199976 -10.40917314 0 0 Z M-67.3125 4.1875 C-80.54548547 20.10391393 -79.52757791 42.22217349 -79.4609375 61.8359375 C-79.4629655 63.974824 -79.46588292 66.11370982 -79.46963501 68.25259399 C-79.47401852 72.69824924 -79.46775321 77.14372172 -79.45361328 81.58935547 C-79.43646088 87.25434472 -79.44642636 92.91890928 -79.46433067 98.58388329 C-79.47522319 102.98681788 -79.47169824 107.38965336 -79.4639473 111.79259109 C-79.46196364 113.88074419 -79.4643391 115.96890665 -79.47138596 118.0570488 C-79.51721023 135.432318 -78.8534525 152.77165912 -66.4375 166.375 C-57.03182351 175.08935017 -46.79854848 177.19579152 -34.5 177.25 C-33.35724609 177.270625 -32.21449219 177.29125 -31.03710938 177.3125 C-18.91981566 177.36792501 -8.564204 174.54962778 0.72265625 166.44140625 C13.44572202 152.87230541 12.2205091 134.01472965 12.0625 116.75 C12.05244806 114.82943176 12.04332614 112.90885842 12.03515625 110.98828125 C12.0150398 106.32528904 11.97586122 101.66301883 11.9375 97 C-0.2725 97 -12.4825 97 -25.0625 97 C-25.31163103 108.8612531 -25.31163103 108.8612531 -25.54052734 120.72290039 C-25.57577161 122.22283624 -25.61169704 123.7227563 -25.6484375 125.22265625 C-25.65979736 125.98574097 -25.67115723 126.74882568 -25.68286133 127.53503418 C-25.81161938 132.35105089 -26.35319757 136.47311476 -28.0625 141 C-31.53173881 143.31282587 -32.98455575 143.42478586 -37.0625 143 C-39.62199546 141.14657225 -40.04168798 140.06243607 -41.0625 137 C-41.15505773 135.56451555 -41.1930618 134.12513791 -41.19621277 132.68667603 C-41.20047775 131.80629166 -41.20474274 130.92590729 -41.20913696 130.0188446 C-41.20868378 129.05565811 -41.20823059 128.09247162 -41.20776367 127.10009766 C-41.21112228 126.08356613 -41.2144809 125.06703461 -41.21794128 124.0196991 C-41.22745909 120.65114122 -41.22939483 117.282633 -41.23046875 113.9140625 C-41.2336808 111.57620218 -41.23704483 109.23834207 -41.24055481 106.90048218 C-41.24654819 101.99615004 -41.2483945 97.09183554 -41.24780273 92.1875 C-41.24770111 85.90032689 -41.26135272 79.61326671 -41.27857494 73.32612038 C-41.28968859 68.49630208 -41.29172213 63.66651114 -41.29119301 58.83668137 C-41.29237411 56.51862575 -41.29680313 54.20056945 -41.30452538 51.8825264 C-41.31431211 48.64116742 -41.31145228 45.40005426 -41.30541992 42.15869141 C-41.31103943 41.19955338 -41.31665894 40.24041534 -41.32244873 39.25221252 C-41.27491978 29.21241978 -41.27491978 29.21241978 -38.0625 26 C-30.72916667 25.52688172 -30.72916667 25.52688172 -28.125 27.375 C-25.68821139 31.10185317 -25.84185092 34.51884321 -25.74609375 38.8515625 C-25.72744263 39.53758545 -25.7087915 40.2236084 -25.6895752 40.93041992 C-25.62123339 43.49514789 -25.56111281 46.0600896 -25.5 48.625 C-25.355625 54.35875 -25.21125 60.0925 -25.0625 66 C-13.1825 66 -1.3025 66 10.9375 66 C11.00678919 60.36191281 11.06639517 54.72533369 11.10229492 49.0871582 C11.11727783 47.17369551 11.13767126 45.26026653 11.16381836 43.34692383 C11.37020523 27.84362768 11.06406532 15.12701656 0.19140625 3.0625 C-9.05781074 -5.85982159 -21.86105474 -8.95238647 -34.375 -9.3125 C-47.88376044 -9.04200656 -57.93247414 -5.57680997 -67.3125 4.1875 Z " fill="#DCA439" transform="translate(294.0625,141)"/>
<path d="M0 0 C73.01754386 0 73.01754386 0 82.4375 7.5625 C92.53795597 18.8598915 93.37353629 33.00299748 93.37060547 47.40063477 C93.37497197 49.79711386 93.41136016 52.19173667 93.44921875 54.58789062 C93.53402934 66.06653185 92.70974906 76.90366281 84.46484375 85.6953125 C83 87 83 87 80 89 C80.9075 89.66 81.815 90.32 82.75 91 C87.36934114 94.8330703 89.86766115 100.15875147 91 106 C91.08924682 108.63915111 91.12629305 111.25098026 91.11352539 113.88964844 C91.11367142 114.68027176 91.11381744 115.47089508 91.1139679 116.28547668 C91.11327236 118.89347089 91.10549675 121.5013933 91.09765625 124.109375 C91.0957908 125.91969768 91.09436749 127.73002087 91.09336853 129.54034424 C91.08955339 134.30130409 91.07973165 139.06223337 91.06866455 143.82318115 C91.05662873 149.53757597 91.05204341 155.25198102 91.04621124 160.96638489 C91.03651938 169.64427785 91.01735579 178.32210373 91 187 C77.8 187 64.6 187 51 187 C50.95101562 181.24820313 50.90203125 175.49640625 50.8515625 169.5703125 C50.81619073 165.93357579 50.78023912 162.29686349 50.7421875 158.66015625 C50.68180243 152.88366123 50.62360359 147.10720052 50.578125 141.33056641 C50.54133868 136.67503478 50.49499725 132.01968864 50.44193649 127.36431503 C50.42335704 125.58528766 50.40826231 123.80622047 50.39665604 122.02713394 C50.37985402 119.54149495 50.35083452 117.0562841 50.31884766 114.57080078 C50.31668747 113.82993225 50.31452728 113.08906372 50.31230164 112.32574463 C50.36738571 108.20994852 50.36738571 108.20994852 48 105 C45.69 104.67 43.38 104.34 41 104 C41 131.39 41 158.78 41 187 C27.47 187 13.94 187 0 187 C0 125.29 0 63.58 0 0 Z M2 2 C2 62.39 2 122.78 2 185 C14.21 185 26.42 185 39 185 C39 157.61 39 130.22 39 102 C42.63 102.66 46.26 103.32 50 104 C52.41634743 107.62452115 52.30624819 110.30960447 52.31884766 114.50073242 C52.32889328 115.26194901 52.3389389 116.02316559 52.34928894 116.80744934 C52.38017884 119.32344813 52.39717204 121.83934024 52.4140625 124.35546875 C52.4327695 126.0999697 52.45234256 127.84446157 52.4727478 129.58894348 C52.52412457 134.18051804 52.56372057 138.77212195 52.60089111 143.36383057 C52.64792962 148.87305161 52.70955117 154.38212637 52.76873779 159.89122772 C52.85701765 168.26075962 52.92673347 176.63026252 53 185 C64.88 185 76.76 185 89 185 C89.14560079 171.02544068 89.14560079 171.02544068 89.24414062 157.05078125 C89.27394835 151.34497625 89.3090848 145.63957513 89.37719727 139.93408203 C89.43180724 135.3304542 89.46148124 130.7272599 89.47438622 126.12333298 C89.48357437 124.3731441 89.50151622 122.62297705 89.52865028 120.8729744 C89.81921788 107.17825879 89.81921788 107.17825879 84 95 C81.54679588 92.49974426 81.54679588 92.49974426 79 91 C77.515 90.01 77.515 90.01 76 89 C76.886875 88.46375 77.77375 87.9275 78.6875 87.375 C84.84788141 83.21964839 87.91657771 77.95412576 90 71 C90.17418457 70.44610596 90.34836914 69.89221191 90.52783203 69.3215332 C91.16990993 66.16459485 91.12993446 63.14692312 91.1328125 59.92578125 C91.13424759 58.90087837 91.13424759 58.90087837 91.13571167 57.85527039 C91.13639085 56.41042997 91.13455482 54.96558647 91.13037109 53.52075195 C91.12506039 51.33733024 91.13030347 49.15411812 91.13671875 46.97070312 C91.14563884 33.98611831 90.85061834 21.47583304 82.75 10.5625 C62.05155829 -8.72468432 24.54824009 2 2 2 Z " fill="#F19B1D" transform="translate(316,132)"/>
<path d="M0 0 C25.41 0 50.82 0 77 0 C77 12.87 77 25.74 77 39 C65.12 39 53.24 39 41 39 C41 49.56 41 60.12 41 71 C52.55 71 64.1 71 76 71 C76 83.54 76 96.08 76 109 C64.45 109 52.9 109 41 109 C41 121.54 41 134.08 41 147 C53.87 147 66.74 147 80 147 C80 160.2 80 173.4 80 187 C53.6 187 27.2 187 0 187 C0 125.29 0 63.58 0 0 Z M2 2 C2 62.39 2 122.78 2 185 C27.08 185 52.16 185 78 185 C78 173.12 78 161.24 78 149 C65.46 149 52.92 149 40 149 C40 135.47 40 121.94 40 108 C51.22 108 62.44 108 74 108 C74 96.45 74 84.9 74 73 C62.45 73 50.9 73 39 73 C39 61.12 39 49.24 39 37 C50.88 37 62.76 37 75 37 C75 25.45 75 13.9 75 2 C50.91 2 26.82 2 2 2 Z " fill="#E5A533" transform="translate(127,132)"/>
<path d="M0 0 C13.2 0 26.4 0 40 0 C40 61.71 40 123.42 40 187 C26.8 187 13.6 187 0 187 C0 125.29 0 63.58 0 0 Z M2 2 C2 62.39 2 122.78 2 185 C13.88 185 25.76 185 38 185 C38 124.61 38 64.22 38 2 C26.12 2 14.24 2 2 2 Z " fill="#DFA639" transform="translate(77,132)"/>
<path d="M0 0 C25.08 0 50.16 0 76 0 C76 12.87 76 25.74 76 39 C57.685 38.505 57.685 38.505 39 38 C39 49.55 39 61.1 39 73 C38.67 73 38.34 73 38 73 C38 61.12 38 49.24 38 37 C49.88 37 61.76 37 74 37 C74 25.45 74 13.9 74 2 C49.91 2 25.82 2 1 2 C1 62.39 1 122.78 1 185 C0.67 185 0.34 185 0 185 C0 123.95 0 62.9 0 0 Z " fill="#FB9711" transform="translate(128,132)"/>
<path d="M0 0 C3.3 0 6.6 0 10 0 C13.36551792 4.48735723 13.42720367 7.004014 13.3125 12.3125 C13.31572266 13.04662109 13.31894531 13.78074219 13.32226562 14.53710938 C13.26842355 20.05347497 13.08382108 25.91617892 9 30 C6.03 30 3.06 30 0 30 C0 20.1 0 10.2 0 0 Z " fill="#63DDDC" transform="translate(357,170)"/>
<path d="M0 0 C7.90053303 -0.06966448 15.29614877 2.17574422 21.17359924 7.59680176 C31.27405522 18.89419326 32.10963553 33.03729924 32.10670471 47.43493652 C32.11107121 49.83141562 32.1474594 52.22603843 32.18531799 54.62219238 C32.27012858 66.10083361 31.4458483 76.93796457 23.20094299 85.72961426 C21.73609924 87.03430176 21.73609924 87.03430176 18.73609924 89.03430176 C19.64359924 89.69430176 20.55109924 90.35430176 21.48609924 91.03430176 C26.09752785 94.86080635 28.61928075 100.19582969 29.73609924 106.03430176 C29.75184291 108.42521567 29.70313692 110.81683584 29.61500549 113.20617676 C29.579589 114.22980316 29.579589 114.22980316 29.54345703 115.27410889 C29.46714964 117.44440234 29.38298518 119.6143089 29.29859924 121.78430176 C29.24534551 123.25954352 29.19260535 124.73480391 29.14039612 126.21008301 C29.01157974 129.81839088 28.8757173 133.42639386 28.73609924 137.03430176 C28.40609924 137.03430176 28.07609924 137.03430176 27.73609924 137.03430176 C27.73199036 136.11729492 27.72788147 135.20028809 27.72364807 134.25549316 C27.69645035 130.80682236 27.6471423 127.35986262 27.58351135 123.91174316 C27.5605158 122.42812828 27.54597952 120.94435442 27.5405426 119.46057129 C27.50181001 110.62358204 27.36594803 102.36641742 21.73609924 95.03430176 C18.90682401 92.64676567 16.21664839 91.29116673 12.73609924 90.03430176 C13.25172424 89.66305176 13.76734924 89.29180176 14.29859924 88.90930176 C15.10297424 88.29055176 15.90734924 87.67180176 16.73609924 87.03430176 C17.29168518 86.64371582 17.84727112 86.25312988 18.41969299 85.85070801 C23.75706825 81.79889411 25.79350039 77.36341416 27.73609924 71.03430176 C27.91334534 70.47138428 28.09059143 69.9084668 28.27320862 69.32849121 C28.90792688 66.18268558 28.86604493 63.1686572 28.86891174 59.96008301 C28.87034683 58.93518013 28.87034683 58.93518013 28.87181091 57.88957214 C28.8724901 56.44473173 28.87065407 54.99988823 28.86647034 53.55505371 C28.86115964 51.371632 28.86640272 49.18841988 28.87281799 47.00500488 C29.03849279 33.09321135 29.03849279 33.09321135 25.42359924 19.78430176 C25.01496643 18.80977051 24.60633362 17.83523926 24.18531799 16.83117676 C21.69817894 12.0311995 19.03286395 8.81410232 14.23609924 6.28430176 C13.48328674 5.87695801 12.73047424 5.46961426 11.95484924 5.04992676 C7.72026418 3.11156036 3.9596439 2.8919855 -0.68479919 2.82897949 C-2.63636932 2.79906166 -2.63636932 2.79906166 -4.62736511 2.76853943 C-6.04266746 2.75155758 -7.45797104 2.73467869 -8.87327576 2.71789551 C-10.32488074 2.6973142 -11.7764799 2.67631742 -13.22807312 2.65492249 C-17.04203048 2.59982325 -20.85604083 2.55036061 -24.67008972 2.5020752 C-28.56468909 2.45177126 -32.45921184 2.39613169 -36.35374451 2.34094238 C-43.9903983 2.23350948 -51.62711597 2.13203175 -59.26390076 2.03430176 C-59.26390076 1.70430176 -59.26390076 1.37430176 -59.26390076 1.03430176 C-51.95293165 0.90318504 -44.64195081 0.77274436 -37.33095455 0.64315033 C-33.93563183 0.58294426 -30.54031348 0.52251137 -27.14500427 0.46154785 C-23.23542981 0.39136078 -19.3258378 0.32218231 -15.41624451 0.25305176 C-14.20556808 0.23117798 -12.99489166 0.2093042 -11.74752808 0.18676758 C-7.83176498 0.11803814 -3.91591108 0.05933239 0 0 Z " fill="#E2901A" transform="translate(377.26390075683594,131.9656982421875)"/>
<path d="M0 0 C3.18256788 0.06931182 3.93424156 0.22826274 6.5625 2.25 C9.47655063 6.21310886 9.25535802 9.46137425 9.22265625 14.2265625 C9.22164917 14.91258545 9.22064209 15.5986084 9.21960449 16.30541992 C9.21436889 18.87029693 9.20040763 21.43515013 9.1875 24 C9.166875 29.73375 9.14625 35.4675 9.125 41.375 C21.335 41.375 33.545 41.375 46.125 41.375 C46.125 29.165 46.125 16.955 46.125 4.375 C46.455 4.375 46.785 4.375 47.125 4.375 C47.125 17.245 47.125 30.115 47.125 43.375 C33.925 43.375 20.725 43.375 7.125 43.375 C6.75 25.0625 6.75 25.0625 6.64697266 19.29174805 C6.61176578 17.78172029 6.57584442 16.27170896 6.5390625 14.76171875 C6.52770264 13.97817017 6.51634277 13.19462158 6.50463867 12.3873291 C6.40219033 8.55292224 6.30017902 6.63776853 4.125 3.375 C0.54142759 3.12484127 0.54142759 3.12484127 -2.875 3.375 C-6.21027075 8.75943086 -6.3169088 13.19554391 -6.30737305 19.32763672 C-6.3175647 20.3136235 -6.32775635 21.29961029 -6.33825684 22.31547546 C-6.36835774 25.5619375 -6.37764853 28.80810431 -6.38671875 32.0546875 C-6.40356755 34.310567 -6.42171806 36.56643712 -6.44111633 38.82229614 C-6.48860038 44.75041779 -6.51842025 50.67850141 -6.54455566 56.60675049 C-6.57436907 62.65978504 -6.62089679 68.71268861 -6.66601562 74.765625 C-6.75203072 86.63534813 -6.81938415 98.50509823 -6.875 110.375 C-7.205 110.375 -7.535 110.375 -7.875 110.375 C-7.92132259 97.03183622 -7.95686887 83.68869154 -7.97862434 70.34546375 C-7.9890654 64.14979527 -8.0032306 57.95418176 -8.02587891 51.75854492 C-8.04759561 45.78040208 -8.0595662 39.80231216 -8.06475449 33.82413292 C-8.06845233 31.54235692 -8.0756732 29.26058384 -8.08646011 26.97883034 C-8.10095928 23.78505804 -8.10297858 20.59150494 -8.10205078 17.39770508 C-8.10924133 16.45255539 -8.11643188 15.5074057 -8.12384033 14.53361511 C-8.08055883 0.78198956 -8.08055883 0.78198956 0 0 Z " fill="#F19617" transform="translate(259.875,165.625)"/>
<path d="M0 0 C8.72165268 8.08516126 12.00228999 17.3952255 12.9375 29 C13.09650111 35.44124388 12.81401836 41.87699193 12.5625 48.3125 C12.50410056 50.03577011 12.44680147 51.75907787 12.390625 53.48242188 C12.25223918 57.6554897 12.09906344 61.82776789 11.9375 66 C11.6075 66 11.2775 66 10.9375 66 C10.92291748 64.81559326 10.90833496 63.63118652 10.89331055 62.41088867 C10.83484571 57.9693552 10.75762042 53.52830346 10.67504883 49.0871582 C10.64202425 47.17382695 10.61392424 45.26040352 10.59106445 43.34692383 C10.4039134 28.09212183 10.01439731 15.217328 -0.5859375 3.28515625 C-10.26708259 -5.99457551 -24.77694802 -8.50468714 -37.69140625 -8.24609375 C-49.59943123 -7.37679413 -58.54009562 -3.97544708 -66.8125 4.6875 C-75.06107261 14.88365226 -76.45564685 26.39338789 -78.0625 39 C-80.0625 37 -80.0625 37 -80.375 33.625 C-79.97977159 21.43879057 -75.0496527 9.13656437 -66.875 0.0625 C-48.77384705 -16.28955278 -18.52514214 -14.57311182 0 0 Z " fill="#E59C27" transform="translate(294.0625,141)"/>
<path d="M0 0 C11.55 0 23.1 0 35 0 C35 0.33 35 0.66 35 1 C23.78 1 12.56 1 1 1 C1 11.56 1 22.12 1 33 C12.55 33 24.1 33 36 33 C36 45.54 36 58.08 36 71 C34.68 70.67 33.36 70.34 32 70 C32.66 70 33.32 70 34 70 C34 58.45 34 46.9 34 35 C22.78 35 11.56 35 0 35 C0 23.45 0 11.9 0 0 Z " fill="#F59A19" transform="translate(167,170)"/>
<path d="M0 0 C12 0 12 0 16 3 C17.36233092 7.08699276 17.26350956 10.90573539 17.3125 15.1875 C17.34150391 16.01314453 17.37050781 16.83878906 17.40039062 17.68945312 C17.46054973 23.56190739 16.42791292 28.137404 13 33 C11 34 11 34 0 34 C0 22.78 0 11.56 0 0 Z M2 2 C2 11.9 2 21.8 2 32 C10.28969655 32.96730641 10.28969655 32.96730641 13 30.3125 C15.22393419 25.16965218 15.21214744 19.94977835 15.25 14.4375 C15.270625 13.68275391 15.29125 12.92800781 15.3125 12.15039062 C15.34664859 7.30555915 15.04192631 6.05590175 12 2 C8.7 2 5.4 2 2 2 Z " fill="#D58413" transform="translate(355,168)"/>
<path d="M0 0 C1.43583001 -0.10836453 2.8740202 -0.18576167 4.3125 -0.25 C5.11300781 -0.29640625 5.91351563 -0.3428125 6.73828125 -0.390625 C9 0 9 0 10.62580872 1.54278564 C12.51113867 4.91397558 12.35311885 7.95288336 12.2487793 11.70605469 C12.23946381 12.47717087 12.23014832 13.24828705 12.22055054 14.04277039 C12.18623272 16.5862565 12.13033089 19.12878412 12.07421875 21.671875 C12.04618024 23.43733695 12.0194904 25.2028208 11.99409485 26.96832275 C11.92368593 31.61120717 11.83496037 36.25356788 11.74243164 40.89605713 C11.63517751 46.46838576 11.55064991 52.04109974 11.46231842 57.61375427 C11.32563235 66.07625957 11.16006518 74.53775911 11 83 C23.54 83 36.08 83 49 83 C49 74.09 49 65.18 49 56 C49.33 56 49.66 56 50 56 C50 65.24 50 74.48 50 84 C36.8 84 23.6 84 10 84 C9.95101563 78.24820313 9.90203125 72.49640625 9.8515625 66.5703125 C9.81619073 62.93357579 9.78023912 59.29686349 9.7421875 55.66015625 C9.68180243 49.88366123 9.62360359 44.10720052 9.578125 38.33056641 C9.54133868 33.67503478 9.49499725 29.01968864 9.44193649 24.36431503 C9.42335704 22.58528766 9.40826231 20.80622047 9.39665604 19.02713394 C9.37985402 16.54149495 9.35083452 14.0562841 9.31884766 11.57080078 C9.31668747 10.82993225 9.31452728 10.08906372 9.31230164 9.32574463 C9.36738571 5.20994852 9.36738571 5.20994852 7 2 C4.67724823 1.59952556 2.34260643 1.2602896 0 1 C0 0.67 0 0.34 0 0 Z " fill="#E0A739" transform="translate(357,235)"/>
<path d="M0 0 C0.66 0 1.32 0 2 0 C2 12.87 2 25.74 2 39 C-16.315 38.505 -16.315 38.505 -35 38 C-35 49.55 -35 61.1 -35 73 C-35.33 73 -35.66 73 -36 73 C-36 61.12 -36 49.24 -36 37 C-24.12 37 -12.24 37 0 37 C0 24.79 0 12.58 0 0 Z " fill="#BC710D" transform="translate(202,132)"/>
<path d="M0 0 C7.90053303 -0.06966448 15.29614877 2.17574422 21.17359924 7.59680176 C27.1573394 14.29111106 30.2323087 22.13400215 30.73609924 31.03430176 C30.07609924 31.03430176 29.41609924 31.03430176 28.73609924 31.03430176 C28.51695862 30.20027832 28.29781799 29.36625488 28.07203674 28.50695801 C25.44756013 19.19326662 22.83796569 11.07840191 14.11109924 6.03430176 C9.10413177 3.50446556 4.92250097 2.90504752 -0.68479919 2.82897949 C-2.63636932 2.79906166 -2.63636932 2.79906166 -4.62736511 2.76853943 C-6.04266746 2.75155758 -7.45797104 2.73467869 -8.87327576 2.71789551 C-10.32488074 2.6973142 -11.7764799 2.67631742 -13.22807312 2.65492249 C-17.04203048 2.59982325 -20.85604083 2.55036061 -24.67008972 2.5020752 C-28.56468909 2.45177126 -32.45921184 2.39613169 -36.35374451 2.34094238 C-43.9903983 2.23350948 -51.62711597 2.13203175 -59.26390076 2.03430176 C-59.26390076 1.70430176 -59.26390076 1.37430176 -59.26390076 1.03430176 C-51.95293165 0.90318504 -44.64195081 0.77274436 -37.33095455 0.64315033 C-33.93563183 0.58294426 -30.54031348 0.52251137 -27.14500427 0.46154785 C-23.23542981 0.39136078 -19.3258378 0.32218231 -15.41624451 0.25305176 C-14.20556808 0.23117798 -12.99489166 0.2093042 -11.74752808 0.18676758 C-7.83176498 0.11803814 -3.91591108 0.05933239 0 0 Z " fill="#E99419" transform="translate(377.26390075683594,131.9656982421875)"/>
<path d="M0 0 C2 3 2 3 3.19140625 5.19921875 C9.26600004 16.22348155 17.05909105 22.11420142 29 26 C32.38330202 26.7709233 35.61753381 27.16762415 39.08203125 27.31640625 C40.47905273 27.37924805 40.47905273 27.37924805 41.90429688 27.44335938 C42.86400391 27.48267578 43.82371094 27.52199219 44.8125 27.5625 C45.79154297 27.60568359 46.77058594 27.64886719 47.77929688 27.69335938 C50.18607027 27.7990226 52.59293983 27.90112327 55 28 C55 28.33 55 28.66 55 29 C50.87524519 29.11751438 46.75092882 29.18768824 42.625 29.25 C41.46871094 29.28351563 40.31242187 29.31703125 39.12109375 29.3515625 C26.9520193 29.48906617 16.79493978 25.59702891 7.98828125 17.046875 C3.97995965 12.64360347 0.2140202 8.28164302 -0.1875 2.125 C-0.125625 1.42375 -0.06375 0.7225 0 0 Z " fill="#E79821" transform="translate(218,291)"/>
<path d="M0 0 C6.56217296 5.65076005 9.12557383 12.21967312 9.86572266 20.74243164 C10.17317217 28.20115674 9.81186694 35.66814693 9.5625 43.125 C9.50917225 44.86196105 9.45643294 46.59894027 9.40429688 48.3359375 C9.27631757 52.55753184 9.14036715 56.77880014 9 61 C8.67 61 8.34 61 8 61 C7.98541748 59.81559326 7.97083496 58.63118652 7.95581055 57.41088867 C7.89734571 52.9693552 7.82012042 48.52830346 7.73754883 44.0871582 C7.70452425 42.17382695 7.67642424 40.26040352 7.65356445 38.34692383 C7.49038215 25.04583022 7.15513169 13.5962479 0 2 C0 1.34 0 0.68 0 0 Z " fill="#D18619" transform="translate(297,146)"/>
<path d="M0 0 C5.34612024 2.43969773 9.47870161 6.1339236 13.71875 10.1484375 C13.05875 10.8084375 12.39875 11.4684375 11.71875 12.1484375 C11.28046875 11.70113281 10.8421875 11.25382813 10.390625 10.79296875 C2.29241494 3.07333355 -7.34813562 -0.23094599 -18.28125 -1.8515625 C-12.59540913 -5.56089678 -5.86207231 -2.18823932 0 0 Z " fill="#E19521" transform="translate(284.28125,134.8515625)"/>
<path d="M0 0 C0.7108374 -0.00926514 1.4216748 -0.01853027 2.15405273 -0.02807617 C7.31609279 0.00359279 7.31609279 0.00359279 9.5625 2.25 C8.48613281 2.28738281 7.40976562 2.32476562 6.30078125 2.36328125 C-2.02635123 2.71738296 -9.7232666 3.47189132 -17.80078125 5.7265625 C-20.46550165 6.25555885 -21.90914466 6.15083919 -24.4375 5.25 C-16.30217249 1.44197436 -8.95150885 0.07467058 0 0 Z " fill="#E0A132" transform="translate(260.4375,129.75)"/>
<path d="M0 0 C-1 3 -1 3 -3.36328125 4.3515625 C-4.82314453 4.98191406 -4.82314453 4.98191406 -6.3125 5.625 C-7.27800781 6.05039062 -8.24351562 6.47578125 -9.23828125 6.9140625 C-13.53207067 8.60242666 -17.01497235 9.12226079 -21.640625 9.09765625 C-22.71054687 9.09443359 -23.78046875 9.09121094 -24.8828125 9.08789062 C-25.99398438 9.07951172 -27.10515625 9.07113281 -28.25 9.0625 C-29.93996094 9.05573242 -29.93996094 9.05573242 -31.6640625 9.04882812 C-34.44276217 9.03705397 -37.22135409 9.0206084 -40 9 C-40 8.67 -40 8.34 -40 8 C-39.41621582 7.98541748 -38.83243164 7.97083496 -38.23095703 7.95581055 C-35.52838041 7.88030915 -32.82690536 7.78399662 -30.125 7.6875 C-28.74828125 7.65366211 -28.74828125 7.65366211 -27.34375 7.61914062 C-17.80186241 7.24956047 -8.26879139 0 0 0 Z " fill="#C87E14" transform="translate(292,310)"/>
<path d="M0 0 C1.76479732 3.52959463 -0.37142279 7.43971773 -1.5300293 11.02954102 C-3.88230478 17.64843963 -7.86708821 22.2473039 -13 27 C-13 23.47547841 -12.42922427 22.99654207 -10.25 20.375 C-5.65678771 14.48182197 -3.29326587 8.05620267 -1 1 C-0.67 0.67 -0.34 0.34 0 0 Z " fill="#DF921F" transform="translate(306,284)"/>
<path d="M0 0 C0.99 0.33 1.98 0.66 3 1 C2.67 11.23 2.34 21.46 2 32 C1.67 32 1.34 32 1 32 C0.67 21.44 0.34 10.88 0 0 Z " fill="#AE741B" transform="translate(406,163)"/>
<path d="M0 0 C1.33333333 2.66666667 2.66666667 5.33333333 4 8 C9.01535052 7.67039784 9.01535052 7.67039784 13 5 C12.625 7.4375 12.625 7.4375 12 10 C9.15916359 11.42041821 7.14522722 11.31452272 4 11 C1.23783818 8.9843684 0.19898473 7.64287373 -0.8125 4.375 C-1 2 -1 2 0 0 Z " fill="#E7951C" transform="translate(253,274)"/>
<path d="M0 0 C0.5775 0.226875 1.155 0.45375 1.75 0.6875 C1.23050781 1.05101562 0.71101562 1.41453125 0.17578125 1.7890625 C-4.34730013 5.04969418 -7.87064189 8.25209248 -11.25 12.6875 C-11.91 12.0275 -12.57 11.3675 -13.25 10.6875 C-12.17173635 9.41236237 -11.08714481 8.14257431 -10 6.875 C-9.39671875 6.16730469 -8.7934375 5.45960938 -8.171875 4.73046875 C-3.29171364 -0.45718245 -3.29171364 -0.45718245 0 0 Z " fill="#D88A19" transform="translate(236.25,136.3125)"/>
<path d="M0 0 C8.23992322 -0.621881 8.23992322 -0.621881 11.0625 1.6875 C12.12196863 4.30085596 12.23290982 6.20508215 12 9 C11.34 9 10.68 9 10 9 C9.5359375 7.5459375 9.5359375 7.5459375 9.0625 6.0625 C8.30476658 3.15934208 8.30476658 3.15934208 7 2 C4.67182036 1.63239269 2.3381615 1.29758419 0 1 C0 0.67 0 0.34 0 0 Z " fill="#DC9424" transform="translate(357,235)"/>
<path d="M0 0 C1.07765625 0.29648438 2.1553125 0.59296875 3.265625 0.8984375 C4.08546875 1.13820312 4.9053125 1.37796875 5.75 1.625 C5.42 2.285 5.09 2.945 4.75 3.625 C-0.2 2.635 -5.15 1.645 -10.25 0.625 C-5.62507486 -1.68746257 -4.77100664 -1.34832796 0 0 Z " fill="#D78817" transform="translate(276.25,132.375)"/>
<path d="M0 0 C0.66 0 1.32 0 2 0 C1.67 3.63 1.34 7.26 1 11 C-1 9 -1 9 -1.23046875 7.08984375 C-1.11111111 1.11111111 -1.11111111 1.11111111 0 0 Z " fill="#CF8D24" transform="translate(215,169)"/>
<path d="M0 0 C0.66 0.33 1.32 0.66 2 1 C0.87895467 2.31587941 -0.24696965 3.62760353 -1.375 4.9375 C-2.00148438 5.66839844 -2.62796875 6.39929688 -3.2734375 7.15234375 C-5 9 -5 9 -7 10 C-5.33248852 6.05860922 -2.77289351 3.2107188 0 0 Z " fill="#F39818" transform="translate(299,301)"/>
<path d="M0 0 C0.66 0 1.32 0 2 0 C1.67 2.97 1.34 5.94 1 9 C0.34 8.67 -0.32 8.34 -1 8 C-0.67 5.36 -0.34 2.72 0 0 Z " fill="#D99D31" transform="translate(407,195)"/>
<path d="M0 0 C0.8353125 0.37125 0.8353125 0.37125 1.6875 0.75 C-1.125 2.8125 -1.125 2.8125 -4.3125 4.75 C-5.3025 4.42 -6.2925 4.09 -7.3125 3.75 C-2.88173077 -0.31153846 -2.88173077 -0.31153846 0 0 Z " fill="#EB971C" transform="translate(236.3125,136.25)"/>
</svg>
